<?xml version="1.0" standalone="no"?>
<!DOCTYPE svg PUBLIC "-//W3C//DTD SVG 20010904//EN"
 "http://www.w3.org/TR/2001/REC-SVG-20010904/DTD/svg10.dtd">
<svg version="1.0" xmlns="http://www.w3.org/2000/svg"
 width="453.389457pt" height="453.756476pt" viewBox="0 0 453.389457 453.756476"
 preserveAspectRatio="xMidYMid meet">
<metadata>
Created by potrace 1.12, written by Peter Selinger 2001-2015
</metadata>
<g transform="translate(-24.087235,473.938149) scale(0.100000,-0.100000)"
fill="#000000" stroke="none">
<path d="M1910 4726 c-108 -29 -214 -105 -300 -216 -28 -36 -61 -78 -73 -93
l-22 -28 -45 31 c-99 66 -217 90 -304 61 -50 -17 -122 -83 -135 -124 -6 -18
-15 -56 -21 -86 -12 -66 -20 -76 -83 -108 -70 -35 -142 -106 -174 -172 -26
-53 -28 -64 -29 -201 -1 -138 -2 -148 -29 -200 -41 -81 -71 -114 -175 -194
-209 -161 -270 -263 -270 -451 0 -97 16 -164 71 -293 63 -148 63 -175 -4 -373
-67 -195 -81 -266 -75 -359 10 -129 79 -227 273 -388 150 -124 178 -173 200
-344 29 -233 109 -365 271 -450 88 -46 121 -55 278 -73 189 -23 226 -44 322
-188 69 -103 158 -188 240 -228 65 -32 73 -34 174 -33 112 1 142 8 339 79 175
62 206 59 426 -39 162 -72 308 -72 450 -2 98 49 158 105 246 232 99 144 146
173 317 194 283 36 407 103 463 249 12 31 32 119 45 195 43 252 64 294 207
410 218 175 286 292 274 470 -6 83 -25 148 -93 311 -50 119 -51 179 -5 285
111 253 105 236 106 350 0 98 -2 109 -32 170 -42 85 -105 158 -234 269 -58 50
-120 111 -137 135 -35 49 -62 137 -62 206 -1 146 -51 288 -129 364 -22 21 -72
55 -112 75 l-73 36 -11 55 c-14 71 -56 150 -95 184 -28 23 -43 29 -101 40 -42
8 -139 -18 -207 -55 -40 -22 -80 -39 -87 -37 -8 2 -43 45 -77 97 -105 158
-222 230 -388 238 -108 6 -187 -12 -328 -74 -99 -45 -113 -48 -187 -47 -73 0
-92 5 -209 52 -196 80 -292 97 -396 68z m1128 -301 c64 -29 143 -109 194 -195
30 -51 35 -67 27 -87 -12 -32 -1 -98 21 -125 17 -21 17 -21 101 53 148 132
268 209 326 209 42 0 91 -56 113 -128 39 -124 62 -304 54 -416 -10 -154 17
-201 190 -336 132 -103 151 -135 150 -245 -1 -137 -61 -226 -221 -332 -122
-80 -134 -103 -157 -295 -18 -142 -43 -205 -103 -258 -62 -54 -136 -79 -265
-91 -166 -14 -212 -40 -298 -166 -110 -162 -162 -198 -285 -197 -73 0 -88 4
-175 44 -92 43 -98 44 -195 45 -97 0 -103 -2 -200 -45 -83 -37 -113 -45 -177
-48 -142 -7 -203 29 -303 179 -37 54 -79 109 -96 123 -40 34 -120 61 -219 75
-291 40 -321 67 -369 333 -27 152 -52 199 -158 304 -168 168 -212 270 -168
393 22 62 48 95 128 158 95 75 143 127 174 188 23 45 25 55 17 120 -19 154 3
399 45 508 29 74 102 96 188 58 82 -38 204 -124 257 -182 29 -32 58 -59 64
-59 22 0 42 45 42 96 0 49 3 55 68 130 122 142 235 214 333 214 23 0 91 -19
162 -46 98 -37 138 -48 204 -52 80 -4 83 -4 180 41 54 26 116 51 138 56 58 14
152 4 213 -24z"/>
<path d="M1956 3510 c-41 -13 -95 -68 -108 -111 -15 -53 -2 -104 39 -150 64
-71 163 -76 234 -12 71 65 76 153 12 223 -47 53 -108 70 -177 50z"/>
<path d="M2920 3487 c-49 -26 -90 -90 -90 -139 0 -101 110 -185 210 -158 74
20 130 88 130 158 0 49 -41 113 -90 139 -55 29 -105 29 -160 0z"/>
<path d="M2361 3001 c-40 -40 9 -122 83 -142 47 -13 130 -4 159 16 53 37 75
115 38 135 -11 5 -74 10 -140 10 -107 0 -123 -2 -140 -19z"/>
</g>
</svg>
